<svg xmlns="http://www.w3.org/2000/svg" xmlns:xlink="http://www.w3.org/1999/xlink">
  <defs/>
  <g>
    <path stroke="none" fill="#664421" d="M581 117.05 L581.05 117.05 586.1 112 607.95 112 613 117.05 613 128.05 596.45 128.05 591.2 120.2 581 120.2 581 117.05"/>
    <path stroke="none" fill="#cb8d4e" d="M581 120.2 L591.2 120.2 596.45 128.05 613 128.05 613 129.95 581 129.95 581 120.2"/>
    <path stroke="none" fill="#7e5228" d="M613 117.05 L607.95 112 586.1 112 581.05 117.05 581 117.05 581 115.05 581.05 115.05 586.1 110 607.95 110 613 115.05 613 117.05"/>
    <path stroke="none" fill="#4abe99" d="M308 161 L318 161 318 179 308 179 308 161"/>
    <path stroke="none" fill="#61ceab" d="M308 161 L308 179 304 179 304 161 308 161"/>
    <path stroke="none" fill="#61ceab" d="M304 145.5 L300 145.5 300 122 304 122 304 145.5"/>
    <path stroke="none" fill="#4abe99" d="M304 145.5 L304 122 322 122 322 145.5 304 145.5"/>
    <path stroke="none" fill="#e0c1a2" d="M113 161 L123 161 123 175.05 113 175.05 113 161"/>
    <path stroke="none" fill="#bb8044" d="M113 175.05 L123 175.05 123 189 113 189 113 175.05"/>
    <path stroke="none" fill="#eccfb1" d="M113 175.05 L109 175.05 109 161 113 161 113 175.05"/>
    <path stroke="none" fill="#cb9155" d="M113 175.05 L113 189 109 189 109 175.05 113 175.05"/>
    <path stroke="none" fill="#e86a17" d="M109 82 L127 82 127 111.5 109 111.5 109 82"/>
    <path stroke="none" fill="#f07a2c" d="M109 82 L109 111.5 105 111.5 105 82 109 82"/>
    <path stroke="none" fill="#f07a2c" d="M127 124 L113 124 113 122 127 122 127 124"/>
    <path stroke="none" fill="#d96315" d="M127 124 L127 142 113 142 113 124 127 124"/>
    <path stroke="none" fill="#fcdbb4" d="M113 142 L127 142 127 151 113 151 113 142"/>
    <path stroke="none" fill="#f5d2a9" d="M127 151 L127 155 113 155 113 151 127 151"/>
    <path stroke="none" fill="#cd8f4f" d="M106 40 L132 40 132 42 106 42 106 40 M100 46.8 L100 42 106 42 106 46.8 100 46.8"/>
    <path stroke="none" fill="#bb8044" d="M106 42 L132 42 132 67 127 61 127 54 120 54 120 57 115 56 115 48 106 46.8 106 42"/>
    <path stroke="none" fill="#fcdbb4" d="M132 67 L132 72 106 72 106 46.8 115 48 115 56 120 57 120 54 127 54 127 61 132 67"/>
    <path stroke="none" fill="#d99d5f" d="M106 40 L106 42 100 42 100 40 106 40"/>
    <path stroke="none" fill="#ffe8cd" d="M106 72 L100 72 100 46.8 106 46.8 106 72"/>
    <path stroke="none" fill="#cd8f4f" d="M110 59 L106 59 106 56 110 56 110 59"/>
    <path stroke="none" fill="#bb8044" d="M110 59 L110 62 106 62 106 59 110 59"/>
    <path stroke="none" fill="#f7c283" d="M100 62 L106 62 106 66 100 66 100 62"/>
    <path stroke="none" fill="#eccfb1" d="M163 160.95 L163 175 159 175 159 160.95 163 160.95"/>
    <path stroke="none" fill="#cb9155" d="M159 175 L163 175 163 188.95 159 188.95 159 175"/>
    <path stroke="none" fill="#e0c1a2" d="M163 175 L163 160.95 173 160.95 173 175 163 175"/>
    <path stroke="none" fill="#bb8044" d="M163 175 L173 175 173 188.95 163 188.95 163 175"/>
    <path stroke="none" fill="#cd8f4f" d="M159 82 L159 111.5 155 111.5 155 82 159 82"/>
    <path stroke="none" fill="#bb8044" d="M159 82 L177 82 177 111.5 159 111.5 159 82"/>
    <path stroke="none" fill="#bb8044" d="M163 124 L163 122 177 122 177 124 163 124"/>
    <path stroke="none" fill="#aa7136" d="M163 124 L177 124 177 134.5 174.65 132.2 172.3 134.5 170 132.2 167.65 134.5 165.3 132.2 163 134.5 163 124"/>
    <path stroke="none" fill="#2ecc71" d="M177 134.5 L177 151 163 151 163 134.5 165.3 132.2 167.65 134.5 170 132.2 172.3 134.5 174.65 132.2 177 134.5"/>
    <path stroke="none" fill="#24bd65" d="M177 151 L177 155 163 155 163 151 177 151"/>
    <path stroke="none" fill="#5b5b5b" d="M156 40 L182 40 182 42 156 42 156 40 M150 45.15 L150 42 156 42 156 47.15 150 45.15"/>
    <path stroke="none" fill="#2ecc71" d="M182 64.9 L182 72 156 72 156 66 156 62 160 62 160 59 160 56 156 56 156 47.15 162.85 44.4 170.25 50.2 172.8 48.35 176.9 51.6 176.9 62.05 182 64.9"/>
    <path stroke="none" fill="#4f4f4f" d="M182 64.9 L176.9 62.05 176.9 51.6 172.8 48.35 170.25 50.2 162.85 44.4 156 47.15 156 42 182 42 182 64.9"/>
    <path stroke="none" fill="#696969" d="M156 40 L156 42 150 42 150 40 156 40"/>
    <path stroke="none" fill="#24ad5e" d="M150 66 L150 62 156 62 156 66 150 66 M156 56 L160 56 160 59 156 59 156 56"/>
    <path stroke="none" fill="#39d97d" d="M156 56 L156 59 156 62 150 62 150 45.15 156 47.15 156 56 M156 72 L150 72 150 66 156 66 156 72"/>
    <path stroke="none" fill="#ffffff" d="M160 59 L160 62 156 62 156 59 160 59"/>
    <path stroke="none" fill="#39d97d" d="M163.45 67.45 L162.05 66.05 169.1 59 170.5 60.4 163.45 67.45"/>
    <path stroke="none" fill="#61ceab" d="M301 87 L301 90 301 100 295 100 295 70 301 70 301 68 327 68 327 70 301 70 301 84 301 87"/>
    <path stroke="none" fill="#6ad7b5" d="M301 68 L301 70 295 70 295 68 301 68"/>
    <path stroke="none" fill="#4abe99" d="M301 70 L327 70 327 100 301 100 301 90 305 90 305 87 305 84 301 84 301 70"/>
    <path stroke="none" fill="#239370" d="M301 84 L305 84 305 87 301 87 301 84"/>
    <path stroke="none" fill="#137858" d="M301 87 L305 87 305 90 301 90 301 87"/>
    <path stroke="none" fill="#59cba7" d="M322 192 L314 192 314 190 322 190 322 192"/>
    <path stroke="none" fill="#309f7c" d="M314 207 L322 207 322 211 314 211 314 207"/>
    <path stroke="none" fill="#40b38f" d="M314 207 L314 192 322 192 322 207 314 207"/>
    <path stroke="none" fill="#d0ab87" d="M63 161 L73 161 73 175.05 63 175.05 63 161"/>
    <path stroke="none" fill="#debb98" d="M63 161 L63 175.05 59 175.05 59 161 63 161"/>
    <path stroke="none" fill="#cb9155" d="M63 189 L59 189 59 175.05 63 175.05 63 189"/>
    <path stroke="none" fill="#bb8044" d="M63 189 L63 175.05 73 175.05 73 189 63 189"/>
    <path stroke="none" fill="#b96dcd" d="M59 111.5 L55 111.5 55 82 59 82 59 111.5"/>
    <path stroke="none" fill="#aa64bd" d="M59 111.5 L59 82 77 82 77 111.5 59 111.5"/>
    <path stroke="none" fill="#aa64bd" d="M63 124 L63 122 77 122 77 124 63 124"/>
    <path stroke="none" fill="#9854aa" d="M63 124 L77 124 77 142 63 142 63 124"/>
    <path stroke="none" fill="#fcdbb4" d="M77 142 L77 151 63 151 63 142 77 142"/>
    <path stroke="none" fill="#f5d2a9" d="M77 151 L77 155 63 155 63 151 77 151"/>
    <path stroke="none" fill="#fcd476" d="M50 46.8 L50 42 56 42 56 40 82 40 82 42 56 42 56 46.8 50 46.8"/>
    <path stroke="none" fill="#fcdbb4" d="M82 65.05 L82 72 56 72 56 46.8 65 48 65 56 70 57 70 65.05 82 65.05"/>
    <path stroke="none" fill="#f0c663" d="M82 42 L82 65.05 70 65.05 70 57 65 56 65 48 56 46.8 56 42 82 42"/>
    <path stroke="none" fill="#ffe098" d="M50 42 L50 40 56 40 56 42 50 42"/>
    <path stroke="none" fill="#ffe8cd" d="M56 72 L50 72 50 46.8 56 46.8 56 72"/>
    <path stroke="none" fill="#cd8f4f" d="M60 59 L56 59 56 56 60 56 60 59"/>
    <path stroke="none" fill="#bb8044" d="M60 59 L60 62 56 62 56 59 60 59"/>
    <path stroke="none" fill="#f7c283" d="M50 62 L56 62 56 66 50 66 50 62"/>
    <path stroke="none" fill="#f0c663" d="M84 53.9 L89 58.6 89 76 84 76 84 53.9"/>
    <path stroke="none" fill="#fcd476" d="M84 53.9 L82 52 82 50 89 56.6 89 58.6 84 53.9"/>
    <path stroke="none" fill="#dbb14e" d="M84 53.9 L84 76 82 76 82 52 84 53.9"/>
    <path stroke="none" fill="#ffffff" d="M333.15 61.9 Q334 62.75 334 64 L334 104 Q334 105.25 333.15 106.15 332.25 107 331 107 L291 107 Q289.75 107 288.9 106.15 288 105.25 288 104 L288 64 Q288 62.75 288.9 61.9 289.75 61 291 61 L331 61 Q332.25 61 333.15 61.9 M331 84 L331 64 291 64 291 84 291 104 331 104 331 84"/>
    <path stroke="none" fill="#ffffff" fill-opacity="0.2" d="M331 84 L291 84 291 64 331 64 331 84"/>
    <path stroke="none" fill="#ffffff" fill-opacity="0.050980392156862744" d="M331 84 L331 104 291 104 291 84 331 84"/>
    <path stroke="none" fill="#a36d36" d="M409 145.5 L409 149.5 397 149.5 397 143.15 409 145.5 M397 140 L397 138 409 138 409 140 397 140"/>
    <path stroke="none" fill="#bb8044" d="M397 140 L409 140 409 145.5 397 143.15 397 140"/>
    <path stroke="none" fill="#cb8d4e" d="M353 86 L353 84 377 84 377 86 375 86 353 86"/>
    <path stroke="none" fill="#a36d36" d="M377 86 L377 115 375 115 375 86 377 86"/>
    <path stroke="none" fill="#bb8044" d="M375 115 L353 115 353 86 375 86 375 115"/>
    <path stroke="none" fill="#cb744a" d="M347 101 L347 99 353 99 353 101 347 101"/>
    <path stroke="none" fill="#bb6b44" d="M347 101 L353 101 353 111 347 111 347 101"/>
    <path stroke="none" fill="#664421" d="M366 98 L362 98 362 95 366 95 366 98"/>
    <path stroke="none" fill="#4d331a" d="M366 98 L366 101 362 101 362 98 366 98"/>
    <path stroke="none" fill="#bb8044" d="M440 87 L440 118 397 118 397 82 403.95 82 408.6 96.95 411.25 96.95 410.5 82.2 415.5 83 420.35 98.55 423 98.55 422.2 84.1 427.15 84.9 431.55 98.95 433.9 98.95 433.2 85.9 440 87"/>
    <path stroke="none" fill="#cb8d4e" d="M440 87 L433.2 85.9 427.15 84.9 422.2 84.1 415.5 83 410.5 82.2 409.3 82 403.95 82 397 82 397 80 409.3 80 440 85 440 87"/>
    <path stroke="none" fill="#a87139" d="M433.2 85.9 L433.9 98.95 431.55 98.95 427.15 84.9 433.2 85.9 M422.2 84.1 L423 98.55 420.35 98.55 415.5 83 422.2 84.1 M410.5 82.2 L411.25 96.95 408.6 96.95 403.95 82 409.3 82 410.5 82.2"/>
    <path stroke="none" fill="#a36d36" d="M450 95 L457 101.5 457 108.35 450 108.35 450 95"/>
    <path stroke="none" fill="#bb8044" d="M450 95 L450 93 457 99.5 457 101.5 450 95"/>
    <path stroke="none" fill="#cb8d4e" d="M377 78 L375 78 372.9 78 370.6 86 370 86 372.9 76 377 76 377 78"/>
    <path stroke="none" fill="#bb8044" d="M370.6 86 L372.9 78 375 78 375 86 370.6 86"/>
    <path stroke="none" fill="#a36d36" d="M375 78 L377 78 377 86 375 86 375 78"/>
    <path stroke="none" fill="#f3b77a" d="M351.1 113.5 L350.1 112.5 357.55 105 363 105 363 107 357.55 107 351.1 113.5"/>
    <path stroke="none" fill="#e7aa6c" d="M351.1 113.5 L357.55 107 363 107 363 110.4 358.2 115.2 352.8 115.2 351.1 113.5"/>
    <path stroke="none" fill="#fc7319" d="M530.95 93 L482.95 93 482.95 91 530.95 91 530.95 93"/>
    <path stroke="none" fill="#e86a17" d="M530.95 118 L522.2 109.25 517.85 109.25 515.3 111.8 506.35 102.85 503.25 102.85 496.85 109.25 493.6 106 482.95 106 482.95 93 530.95 93 530.95 118"/>
    <path stroke="none" fill="#ffffff" d="M530.95 118 L482.95 118 482.95 106 493.6 106 496.85 109.25 503.25 102.85 506.35 102.85 515.3 111.8 517.85 109.25 522.2 109.25 530.95 118"/>
    <path stroke="none" fill="#333333" d="M497 71 L491 71 491 61 497 61 497 71"/>
    <path stroke="none" fill="#333333" d="M473 106 L473 101 478 101 478 106 473 106"/>
    <path stroke="none" fill="#ffffff" d="M473 106 L478 106 481 106 481 111 473 111 473 106"/>
    <path stroke="none" fill="#d05e14" d="M481 101 L483 101 483 106 481 106 481 101"/>
    <path stroke="none" fill="#e9e9e9" d="M483 106 L483 111 481 111 481 106 483 106"/>
    <path stroke="none" fill="#e86a17" d="M478 101 L481 101 481 106 478 106 478 101"/>
    <path stroke="none" fill="#664421" d="M486 100 L486 97 490 97 490 100 486 100"/>
    <path stroke="none" fill="#4d331a" d="M486 100 L490 100 490 103 486 103 486 100"/>
    <path stroke="none" fill="#e86a17" d="M500.95 130 L500.95 134.75 492.95 134.75 492.95 130 500.95 130"/>
    <path stroke="none" fill="#d05e14" d="M500.95 130 L492.95 130 492.95 128 500.95 128 500.95 130"/>
    <path stroke="none" fill="#664421" d="M500.95 134.75 L500.95 139.5 492.95 139.5 492.95 134.75 500.95 134.75"/>
    <path stroke="none" fill="#e86a17" d="M540.95 103 L540.95 101 542.95 101 542.95 103 540.95 103 M550.95 111 L542.95 111 542.95 103 550.95 103 550.95 111"/>
    <path stroke="none" fill="#fc7319" d="M542.95 103 L542.95 101 550.95 101 550.95 103 542.95 103"/>
    <path stroke="none" fill="#ffffff" d="M550.95 101 L560.95 101 560.95 111 550.95 111 550.95 103 550.95 101"/>
    <path stroke="none" fill="#d05e14" d="M540.95 103 L542.95 103 542.95 111 540.95 111 540.95 103"/>
    <path stroke="none" fill="#4f6d5c" d="M257 192 L265 192 265 206.05 257 206.05 257 192"/>
    <path stroke="none" fill="#bb8044" d="M257 206.05 L265 206.05 265 209 257 209 257 206.05"/>
    <path stroke="none" fill="#5b7e6a" d="M257 206.05 L253 206.05 253 192 257 192 257 206.05"/>
    <path stroke="none" fill="#cb9155" d="M257 206.05 L257 209 253 209 253 206.05 257 206.05"/>
    <path stroke="none" fill="#3fa1d9" d="M255 158 L268 158 268 172 255 172 255 158"/>
    <path stroke="none" fill="#cd8f4f" d="M255 176 L251 176 251 172 255 172 255 176"/>
    <path stroke="none" fill="#bb8044" d="M255 176 L255 172 268 172 268 176 255 176"/>
    <path stroke="none" fill="#4cafe7" d="M255 158 L255 172 251 172 251 158 255 158"/>
    <path stroke="none" fill="#3491c6" d="M261 120 L268 120 268 132 261 132 261 120"/>
    <path stroke="none" fill="#409cd0" d="M261 120 L261 118 268 118 268 120 261 120"/>
    <path stroke="none" fill="#fcdbb4" d="M268 132 L268 135 261 135 261 132 268 132"/>
    <path stroke="none" fill="#f5d2a9" d="M268 135 L268 139 261 139 261 135 268 135"/>
    <path stroke="none" fill="#fa5240" d="M249.05 85 L248 85 257.4 67 260.6 67 270 85 268.95 85 260.6 69 257.4 69 249.05 85"/>
    <path stroke="none" fill="#ffe8cd" d="M249.05 85 L254 85 254 93 248 93 248 85 249.05 85"/>
    <path stroke="none" fill="#e74c3c" d="M249.05 85 L257.4 69 260.6 69 268.95 85 262.65 85 254 85 249.05 85"/>
    <path stroke="none" fill="#fcdbb4" d="M254 93 L254 85 262.65 85 262.65 90 257.7 94.95 255.95 94.95 254 93 M262 100 L262 96.75 270 93.5 270 100 262 100"/>
    <path stroke="none" fill="#eeedec" d="M262 100 L254 105.3 254 93 255.95 94.95 257.7 94.95 262.65 90 262.65 85 268.95 85 270 85 270 93.5 262 96.75 262 100"/>
    <path stroke="none" fill="#ffffff" d="M248 93 L254 93 254 105.3 251 107.25 248 100 248 93"/>
    <path stroke="none" fill="#cd8f4f" d="M260 90 L256 90 256 87 260 87 260 90"/>
    <path stroke="none" fill="#bb8044" d="M260 90 L260 93 256 93 256 90 260 90"/>
    <path stroke="none" fill="#f7c283" d="M248 89 L254 89 254 93 248 93 248 89"/>
    <path stroke="none" fill="#ecdcb8" d="M214.45 200.95 L223 200.95 223 213 219.55 216.45 223 219.9 223 228.95 214.45 228.95 214.45 216.45 214.45 200.95"/>
    <path stroke="none" fill="#f7e9ca" d="M214.45 200.95 L214.45 216.45 214.45 228.95 211 228.95 211 219.9 214.45 216.45 211 213 211 200.95 214.45 200.95"/>
    <path stroke="none" fill="#e2d3b0" d="M216 94 L216 92 226 92 226 94 216 94"/>
    <path stroke="none" fill="#d4c6a5" d="M216 94 L226 94 226 105.45 223.95 107.5 226 109.55 226 121 216 121 216 109.6 218.1 107.5 216 105.4 216 94"/>
    <path stroke="none" fill="#cbbe9e" d="M226 121 L226 125 216 125 216 121 226 121"/>
    <path stroke="none" fill="#f7e9ca" d="M206 40 L232 40 232 42 206 42 206 40 M206 72 L200 72 200 42 206 42 206 56 206 59 206 62 206 72"/>
    <path stroke="none" fill="#fff0d0" d="M206 40 L206 42 200 42 200 40 206 40"/>
    <path stroke="none" fill="#5b5b5b" d="M206 56 L210 56 210 59 206 59 206 56"/>
    <path stroke="none" fill="#4f4f4f" d="M206 59 L210 59 210 62 206 62 206 59"/>
    <path stroke="none" fill="#ecdcb8" d="M206 42 L232 42 232 64.3 219.6 64.3 211.9 72 206 72 206 62 210 62 210 59 210 56 206 56 206 42"/>
    <path stroke="none" fill="#d7c8a7" d="M232 64.3 L232 72 211.9 72 219.6 64.3 232 64.3"/>
    <path stroke="none" fill="#decfad" d="M226.2 45.15 L227.65 46.6 223.4 50.85 224.8 52.25 223.4 53.65 222 52.25 220.6 53.65 219.15 52.2 223.4 47.95 222 46.55 223.4 45.15 224.8 46.55 226.2 45.15"/>
    <path stroke="none" fill="#4d331a" d="M581 130 L577 130 577 126 581 126 581 130"/>
    <path stroke="none" fill="#664421" d="M490 100 L486 100 486 97 490 97 490 100"/>
    <path stroke="none" fill="#4d331a" d="M490 100 L490 103 486 103 486 100 490 100"/>
    <path stroke="none" fill="#664421" d="M588 122 L588 126 584 126 584 122 588 122"/>
    <path stroke="none" fill="#cb8d4e" d="M596 121 L593 124 590 121 593 118 596 121"/>
    <path stroke="none" fill="#ecdcb8" d="M213 167.05 L222 167 222 158 209 158 209 142 227 142 227 172 213 172 213 167.05"/>
    <path stroke="none" fill="#f7e9ca" d="M209 142 L209 158 205 158 205 142 209 142 M213 167.05 L213 172 209 172 209 167 213 167.05"/>
  </g>
</svg>