<svg xmlns="http://www.w3.org/2000/svg" xmlns:xlink="http://www.w3.org/1999/xlink">
  <defs>
    <linearGradient gradientUnits="userSpaceOnUse" x1="-819.2" x2="819.2" spreadMethod="pad" gradientTransform="matrix(0 0.078125 -0.078094482421875 0 223.05 236.05)" id="gradient0">
      <stop offset="0" stop-color="#d9f5ff"/>
      <stop offset="0.5372549019607843" stop-color="#e2f7ff"/>
      <stop offset="0.5490196078431373" stop-color="#c3effe"/>
      <stop offset="1" stop-color="#b0e9fc"/>
    </linearGradient>
    <linearGradient gradientUnits="userSpaceOnUse" x1="-819.2" x2="819.2" spreadMethod="pad" gradientTransform="matrix(0 0.078125 -0.078094482421875 0 361.05 236.05)" id="gradient1">
      <stop offset="0" stop-color="#d9f5ff"/>
      <stop offset="0.5372549019607843" stop-color="#e2f7ff"/>
      <stop offset="0.5490196078431373" stop-color="#c3effe"/>
      <stop offset="1" stop-color="#b0e9fc"/>
    </linearGradient>
    <linearGradient gradientUnits="userSpaceOnUse" x1="-819.2" x2="819.2" spreadMethod="pad" gradientTransform="matrix(0 0.078125 -0.078094482421875 0 85.05 236.05)" id="gradient2">
      <stop offset="0" stop-color="#d9f5ff"/>
      <stop offset="0.5372549019607843" stop-color="#e2f7ff"/>
      <stop offset="0.5490196078431373" stop-color="#c3effe"/>
      <stop offset="1" stop-color="#b0e9fc"/>
    </linearGradient>
  </defs>
  <g>
    <path stroke="none" fill="#ffedaf" d="M632.05 117.05 L632.05 115.05 678.05 115.05 678.05 117.05 632.05 117.05"/>
    <path stroke="none" fill="#ffe179" d="M632.05 117.05 L678.05 117.05 678.05 161.05 632.05 161.05 632.05 117.05"/>
    <path stroke="none" fill="#fff5e0" d="M558.05 117.05 L558.05 115.05 604.05 115.05 604.05 117.05 558.05 117.05"/>
    <path stroke="none" fill="#f7ebcf" d="M558.05 117.05 L604.05 117.05 604.05 161.05 558.05 161.05 558.05 117.05 M575.05 122.05 L565.05 122.05 565.05 132.05 575.05 132.05 575.05 122.05 M566.05 137.05 L566.05 143.05 572.05 143.05 572.05 137.05 566.05 137.05 M593.05 125.05 L579.05 125.05 579.05 139.05 593.05 139.05 593.05 125.05"/>
    <path stroke="none" fill="#eeddb7" d="M593.05 125.05 L593.05 139.05 579.05 139.05 579.05 125.05 593.05 125.05 M575.05 122.05 L575.05 132.05 565.05 132.05 565.05 122.05 575.05 122.05 M566.05 137.05 L572.05 137.05 572.05 143.05 566.05 143.05 566.05 137.05"/>
    <path stroke="none" fill="#e86a17" d="M570.3 26.05 L574.05 40.4 563.05 41.4 565.05 33.15 567.2 34 565.9 38.75 570.6 37.75 568.15 29.85 559.7 33.4 562.15 42.55 559 43 556.05 31.85 570.3 26.05"/>
    <path stroke="none" fill="#ff9513" d="M600.3 26.05 L604.05 40.4 593.05 41.4 595.05 33.15 597.2 34 595.9 38.75 600.6 37.75 598.15 29.85 589.7 33.4 592.15 42.55 589 43 586.05 31.85 600.3 26.05"/>
    <path stroke="none" fill="#ffffff" d="M568.15 59.85 L559.7 63.4 562.15 72.55 559 73 556.05 61.85 570.3 56.05 574.05 70.4 563.05 71.4 565.05 63.15 567.2 64 565.9 68.75 570.6 67.75 568.15 59.85"/>
    <path stroke="none" fill="#b0e9fc" d="M604.05 70.4 L593.05 71.4 595.05 63.15 597.2 64 595.9 68.75 600.6 67.75 598.15 59.85 589.7 63.4 592.15 72.55 589 73 586.05 61.85 600.3 56.05 604.05 70.4"/>
    <path stroke="none" fill="#e86a17" d="M641.05 30.05 L641.05 38.05 633.05 38.05 633.05 30.05 641.05 30.05"/>
    <path stroke="none" fill="#ff9513" d="M671.05 30.05 L671.05 38.05 663.05 38.05 663.05 30.05 671.05 30.05"/>
    <path stroke="none" fill="#b0e9fc" d="M663.05 68.05 L663.05 60.05 671.05 60.05 671.05 68.05 663.05 68.05"/>
    <path stroke="none" fill="#ffffff" d="M633.05 68.05 L633.05 60.05 641.05 60.05 641.05 68.05 633.05 68.05"/>
    <path stroke="none" fill="#ffffff" fill-opacity="0" d="M510.7 25.75 L500.7 25.75 500.7 65.25 510.7 65.25 510.7 25.75 M486.1 21.05 L514.85 21.05 514.85 46.35 524.85 46.35 524.85 21.05 529.05 21.05 529.05 85.05 524.85 85.05 524.85 70.85 514.85 70.85 514.85 85.05 486.1 85.05 486.1 49.4 476.1 49.4 476.1 85.05 465.05 85.05 465.05 21.05 476.1 21.05 476.1 24.9 486.1 24.9 486.1 21.05"/>
    <path stroke="none" fill="#ffffff" fill-opacity="0.10196078431372549" d="M486.1 21.05 L486.1 24.9 476.1 24.9 476.1 21.05 486.1 21.05 M510.7 25.75 L510.7 65.25 500.7 65.25 500.7 25.75 510.7 25.75 M514.85 21.05 L524.85 21.05 524.85 46.35 514.85 46.35 514.85 21.05 M524.85 85.05 L514.85 85.05 514.85 70.85 524.85 70.85 524.85 85.05 M486.1 85.05 L476.1 85.05 476.1 49.4 486.1 49.4 486.1 85.05"/>
    <path stroke="none" fill="#ffffff" fill-opacity="0" d="M479.25 21.05 L508 21.05 508 56.7 518 56.7 518 21.05 529.05 21.05 529.05 85.05 518 85.05 518 81.2 508 81.2 508 85.05 479.25 85.05 479.25 59.75 469.25 59.75 469.25 85.05 465.05 85.05 465.05 21.05 469.25 21.05 469.25 35.25 479.25 35.25 479.25 21.05 M493.4 80.35 L493.4 40.85 483.4 40.85 483.4 80.35 493.4 80.35"/>
    <path stroke="none" fill="#ffffff" fill-opacity="0.30196078431372547" d="M493.4 80.35 L483.4 80.35 483.4 40.85 493.4 40.85 493.4 80.35 M508 21.05 L518 21.05 518 56.7 508 56.7 508 21.05 M518 85.05 L508 85.05 508 81.2 518 81.2 518 85.05 M479.25 85.05 L469.25 85.05 469.25 59.75 479.25 59.75 479.25 85.05 M469.25 21.05 L479.25 21.05 479.25 35.25 469.25 35.25 469.25 21.05"/>
    <path stroke="none" fill="url(#gradient0)" d="M159 300 L159 172.05 287 172.05 287 300 159 300"/>
    <path stroke="none" fill="#d9f5ff" d="M287 34.1 L287 162.05 159 162.05 159 34.1 287 34.1"/>
    <path stroke="none" fill="#b0e9fc" d="M287 310 L287 437.95 159 437.95 159 310 287 310"/>
    <path stroke="none" fill="url(#gradient1)" d="M425 300 L297 300 297 172.05 425 172.05 425 300"/>
    <path stroke="none" fill="#e7f8ff" d="M405.2 216 Q406.9 216 408.1 217.1 408.75 217.7 409.05 218.5 410.25 218 411.6 217.85 411.8 216.3 413 215.15 413.8 214.3 414.85 213.95 L416.45 213.7 Q418.5 213.7 419.95 215.15 L420.6 215.9 Q422.3 216.05 423.55 217.3 424.95 218.7 425 220.65 L425 244.35 297 244.35 297 220.25 298.9 219.85 300.8 220.25 Q302.8 219.35 305.25 219.35 L305.45 219.35 Q305.7 218.25 306.6 217.45 307.75 216.35 309.45 216.35 310.7 216.35 311.65 216.9 L312.65 215.8 Q314 214.55 315.55 213.85 L315.85 212.95 315.5 211.65 315.5 211.35 315.5 211.2 Q315.55 209.7 316.7 208.65 317.9 207.55 319.55 207.55 L320.45 207.65 Q321.2 206 322.65 204.7 325.7 201.85 330.05 201.85 332.55 201.85 334.65 202.8 335.55 202.25 336.8 202.25 338.5 202.25 339.65 203.35 340.75 204.35 340.85 205.75 L341.95 205.6 Q343.65 205.6 344.85 206.7 L345.7 208 Q350.05 208 353.1 210.85 L354.75 212.8 354.8 212.7 Q356 211.6 357.7 211.6 359.4 211.6 360.6 212.7 361.4 213.45 361.65 214.4 L362.4 214.4 364.6 214.6 Q364.8 213.5 365.7 212.7 366.9 211.6 368.6 211.6 370 211.6 371.05 212.35 373.15 210.6 375.8 210.1 376.05 209.15 376.85 208.35 378.05 207.25 379.75 207.25 381.45 207.25 382.65 208.35 L383.7 209.95 384.4 209.9 Q386.1 209.9 387.3 211 388.45 212.1 388.5 213.55 L388.5 213.7 388.5 213.8 388.45 214.05 388.45 214.1 Q389.3 213.75 390.25 213.75 391.95 213.75 393.15 214.85 L393.25 215 394.9 214.85 Q399 214.85 402 217.45 L402.3 217.1 Q403.5 216 405.2 216"/>
    <path stroke="none" fill="url(#gradient2)" d="M21 172.05 L149 172.05 149 300 21 300 21 172.05"/>
    <path stroke="none" fill="#c3effe" d="M78.85 221.9 Q80.05 220.8 81.75 220.8 83.45 220.8 84.65 221.9 85.45 222.65 85.7 223.6 L86.45 223.6 88.65 223.8 Q88.85 222.7 89.75 221.9 90.95 220.8 92.65 220.8 94.05 220.8 95.1 221.55 97.2 219.8 99.85 219.3 100.1 218.35 100.9 217.55 102.1 216.45 103.8 216.45 105.5 216.45 106.7 217.55 107.45 218.25 107.75 219.15 L108.45 219.1 Q110.15 219.1 111.35 220.2 112.5 221.3 112.55 222.75 L112.55 222.9 112.55 223 112.5 223.25 112.5 223.3 114.3 222.95 Q116 222.95 117.2 224.05 L117.3 224.2 118.95 224.05 Q123.05 224.05 126.05 226.65 L126.35 226.3 Q127.55 225.2 129.25 225.2 130.95 225.2 132.15 226.3 L133.1 227.7 Q134.3 227.2 135.65 227.05 135.85 225.5 137.05 224.35 137.85 223.5 138.9 223.15 L140.5 222.9 Q142.55 222.9 144 224.35 L144.65 225.1 Q146.35 225.25 147.6 226.5 149 227.9 149.05 229.85 L149.05 243.05 21.05 243.05 21.05 229.45 22.95 229.05 24.85 229.45 Q26.85 228.55 29.3 228.55 L29.5 228.55 Q29.75 227.45 30.65 226.65 31.8 225.55 33.5 225.55 34.75 225.55 35.7 226.1 L36.7 225 Q38.05 223.75 39.6 223.05 L39.9 222.15 39.55 220.85 39.55 220.55 39.55 220.4 Q39.6 218.9 40.75 217.85 41.95 216.75 43.6 216.75 L44.5 216.85 Q45.25 215.2 46.7 213.9 49.75 211.05 54.1 211.05 56.6 211.05 58.7 212 59.6 211.45 60.85 211.45 62.55 211.45 63.7 212.55 64.8 213.55 64.9 214.95 L66 214.8 Q67.7 214.8 68.9 215.9 L69.75 217.2 Q74.1 217.2 77.15 220.05 L78.8 222 78.85 221.9"/>
    <path stroke="none" fill="#c3effe" d="M403.75 225.7 L406.45 220 408.6 225.9 407.8 225.85 408.85 231.55 408.3 231.4 409.45 235.3 405.85 235.2 405.85 236.45 Q411.25 237.2 416.45 234.8 420.65 232.9 425 231.35 L425 245 297 245 297 231.35 Q304.25 229.35 311.6 230.85 L312.2 228.2 307 227.95 310.2 220.3 309 220.05 312.85 212.95 311.5 212.85 316.1 203.75 319.25 213.4 318 213.3 319.45 222.5 318.5 222.25 320.2 228.6 314.4 228.3 314.25 231.5 Q320.75 233.1 327 235.4 334.35 238.1 342.2 238 L349.4 237.25 349.5 235.35 346.3 235.7 347.5 230.75 346.75 230.7 348.4 225.95 347.55 226.05 349.5 220.05 352.35 225.6 351.6 225.7 353.4 231.15 352.75 231.1 354.45 234.8 350.85 235.2 351.05 236.85 Q354.2 236.05 357.15 234.65 361.7 232.45 366.55 231.05 L366.75 227.95 361.6 228.55 363.5 220.45 362.25 220.4 364.95 212.75 363.6 212.9 366.7 203.2 371.3 212.2 370.1 212.3 373 221.15 372 221.05 374.7 227.05 368.9 227.7 369.25 230.35 371.8 229.8 Q379.45 228.3 386.95 230.5 394.25 232.7 401.35 235.35 L404.3 236.2 404.5 235.2 401.3 235.15 403.1 230.35 402.35 230.2 404.6 225.75 403.75 225.7"/>
  </g>
</svg>